<?xml version="1.0" encoding="UTF-8"?>
<svg width="100pt" height="100pt" version="1.1" viewBox="0 0 100 100" xmlns="http://www.w3.org/2000/svg">
 <path d="m87.699 12.5c-0.80078-3.6992-4.1016-6.6016-8.1992-6.6016h-42.602c-4 0-7.3984 2.8008-8.1992 6.5h-17c-3.6992 0.10156-6.6992 3-6.6992 6.7031v61.699c0 3.6992 3 6.6016 6.6992 6.6016h16.898c0.69922 3.8984 4.1016 6.8008 8.1992 6.8008h42.699c3.8008 0 7-2.5 8-5.8008 4.1992-0.39844 7.5-3.8984 7.5-8.1992l0.003906-59.602c0-4.1016-3.1992-7.6016-7.3008-8.1016zm-50.801-3.6992h42.699c2.5 0 4.5 1.6016 5.1992 3.8008-3.3008 0.80078-5.8008 3.5-6.3008 6.8008l-41.598-0.003906c-3 0-5.3984-2.3984-5.3984-5.3008 0-2.8984 2.3984-5.2969 5.3984-5.2969zm-8.1992 75.699h-17c-2.1016 0-3.8008-1.6992-3.8008-3.6992v-61.699c0-2.1016 1.6992-3.6992 3.8008-3.6992h16.898c0.60156 4 4.1016 7 8.1992 7h41.398v55.5l-41.297-0.003906c-4.0977-0.097657-7.5 2.8008-8.1992 6.6016zm50.801 6.8984h-42.602c-3 0-5.3984-2.3984-5.3984-5.3008 0-2.8984 2.3984-5.3008 5.3984-5.3008h41.5c0.19922 3.6016 2.8008 6.5 6.1992 7.3984-0.89844 1.8047-2.7969 3.2031-5.0977 3.2031zm12.602-11.199c0 2.8984-2.3984 5.3008-5.3984 5.3008s-5.3984-2.3984-5.3984-5.3008l-0.003907-59.598c0-2.8984 2.3984-5.3008 5.3984-5.3008s5.3984 2.3984 5.3984 5.3008z"/>
</svg>
