<?xml version="1.0" encoding="UTF-8"?>
<svg width="100pt" height="100pt" version="1.1" viewBox="0 0 100 100" xmlns="http://www.w3.org/2000/svg">
 <g>
  <path d="m79.492 10.984l-2.6641-5.3008c-0.20312-0.40625-0.61719-0.66016-1.0703-0.66016h-51.516c-0.45313 0-0.86719 0.25781-1.0703 0.66016l-2.6953 5.3633c-0.1875 0.37109-0.16797 0.81641 0.050782 1.1719s0.60547 0.57031 1.0234 0.57031h1.5c-0.0625 1.7734-0.097656 5.2031 0.30078 9.2031 0.75391 7.5742 2.6445 13.379 5.625 17.262v4.5234c-0.59766 0.90234-1.9492 3.3828-1.9492 7.3516 0 1.5742 0.43359 3.9453 2.5039 6.3125 1.8047 2.0625 4.4609 3.6523 7.9062 4.7422l-3.4883 29.199c-0.015625 0.085938-0.019531 0.16406-0.019531 0.24609 0 1.2969 1.4883 1.8047 1.9805 1.9727 0.82031 0.28125 1.9648 0.52734 3.4023 0.73438 2.8633 0.41406 6.6602 0.64453 10.688 0.64453s7.8242-0.22656 10.688-0.64453c1.4375-0.20703 2.5859-0.45313 3.4023-0.73438 0.48828-0.16797 1.9805-0.67578 1.9805-1.9727 0-0.085937-0.007812-0.16406-0.019531-0.24609l-3.4844-29.199c3.4453-1.0898 6.1055-2.6836 7.9062-4.7422 2.0664-2.3633 2.5039-4.7344 2.5039-6.3125 0-3.9688-1.3516-6.4492-1.9453-7.3516v-4.5234c2.9805-3.8789 4.8672-9.6836 5.6211-17.262 0.39844-4 0.36328-7.4297 0.30469-9.2031h1.4961 0.003906c0.66406 0 1.1992-0.53906 1.1992-1.1992-0.003906-0.22266-0.058594-0.42578-0.16406-0.60547zm-15.879 80.238c-1.2539 0.53906-5.875 1.3555-13.613 1.3555s-12.359-0.8125-13.613-1.3555l3.5117-29.395c2.8906 0.67578 6.2617 1.0352 10.094 1.082h0.007812 0.011719c3.832-0.046875 7.2031-0.40625 10.094-1.082zm3.0781-33.668c-3.5781 2.5078-9.1914 3.8242-16.691 3.9141-7.4961-0.089844-13.113-1.4062-16.691-3.9141-3.3477-2.3477-3.8477-5.0352-3.8477-6.4336 0-3.082 0.94922-5.0352 1.4219-5.8125 0.36328 0.23047 0.79297 0.39844 1.1641 0.52344 1.0117 0.34766 2.4414 0.65234 4.2539 0.91406 3.6641 0.53125 8.5312 0.82031 13.703 0.82031s10.039-0.29297 13.703-0.82031c1.8125-0.26172 3.2383-0.57031 4.2539-0.91406 0.37109-0.12891 0.80078-0.29688 1.1641-0.52344 0.47266 0.77734 1.4219 2.7305 1.4219 5.8125-0.007813 1.3945-0.50781 4.0859-3.8555 6.4336zm-34.648-17.289c1.0117 0.34766 2.4414 0.65234 4.2539 0.91406 3.6641 0.53125 8.5312 0.82031 13.703 0.82031s10.039-0.29297 13.703-0.82031c1.8125-0.26172 3.2383-0.57031 4.2539-0.91406 0.17578-0.0625 0.36719-0.13281 0.55859-0.21484v3.918c-0.17188 0.15625-1.1641 0.84766-5.668 1.4414-3.5156 0.46094-8.0781 0.71875-12.844 0.71875s-9.3281-0.25391-12.844-0.71875c-4.5039-0.59375-5.4961-1.2852-5.668-1.4414v-3.918c0.18359 0.085938 0.375 0.15234 0.55078 0.21484zm-0.42578-1.7617c0.003906-0.003906 0.007812-0.003906 0.011718-0.007812 0.007813-0.003906 0.015625-0.007813 0.019532-0.011719 0.007812-0.003906 0.015624-0.011719 0.023437-0.015625s0.015625-0.007812 0.023437-0.011719c0.011719-0.007812 0.019532-0.011719 0.03125-0.019531 0.007813-0.003906 0.015626-0.007812 0.023438-0.011719 0.019531-0.011719 0.039062-0.019531 0.0625-0.03125 0.003906-0.003906 0.011719-0.007812 0.015625-0.007812 0.019531-0.007813 0.035156-0.019531 0.054687-0.027344 0.007813-0.003906 0.019532-0.007813 0.027344-0.015625 0.015625-0.007812 0.03125-0.015625 0.050782-0.023438 0.011718-0.003906 0.023437-0.011718 0.035156-0.015624 0.015625-0.007813 0.035156-0.015626 0.050781-0.023438 0.011719-0.003906 0.023437-0.011719 0.039063-0.015625 0.019531-0.007813 0.039062-0.015625 0.0625-0.023437 0.011718-0.003907 0.023437-0.011719 0.039062-0.015626 0.023438-0.007812 0.050781-0.019531 0.074219-0.027343 0.011719-0.003907 0.023437-0.007813 0.035156-0.015625 0.039063-0.015625 0.078125-0.027344 0.11719-0.042969 0.007813-0.003906 0.011719-0.003906 0.019532-0.007813 0.035156-0.011718 0.074218-0.027343 0.10938-0.039062 0.015625-0.003906 0.03125-0.011719 0.046875-0.015625 0.03125-0.011719 0.0625-0.019531 0.09375-0.03125 0.019531-0.007813 0.035156-0.011719 0.054687-0.019531 0.03125-0.011719 0.0625-0.019532 0.097657-0.03125 0.019531-0.007813 0.039062-0.011719 0.0625-0.019532 0.035156-0.011718 0.070312-0.019531 0.10547-0.03125 0.019532-0.007812 0.039063-0.011718 0.0625-0.019531 0.039063-0.011719 0.082032-0.023437 0.125-0.035156 0.019532-0.003906 0.035156-0.011719 0.054688-0.015625 0.0625-0.015625 0.125-0.035156 0.19141-0.050781 0.003906-0.003907 0.011719-0.003907 0.015625-0.003907 0.0625-0.015624 0.125-0.03125 0.1875-0.046874 0.019531-0.007813 0.046875-0.011719 0.066406-0.015626 0.050781-0.011718 0.097657-0.023437 0.14844-0.035156 0.027343-0.007812 0.054687-0.011718 0.085937-0.019531 0.050782-0.011719 0.097656-0.023437 0.14844-0.035156 0.03125-0.007813 0.0625-0.011719 0.09375-0.019531 0.050781-0.011719 0.10547-0.023438 0.15625-0.035157 0.03125-0.007812 0.0625-0.011719 0.09375-0.019531 0.058594-0.011719 0.12109-0.023438 0.18359-0.035156 0.027343-0.003906 0.054687-0.011719 0.082031-0.015625 0.09375-0.019531 0.18359-0.035157 0.28125-0.054688 0.003906 0 0.007812 0 0.007812-0.003906 0.09375-0.015625 0.1875-0.035156 0.28906-0.050781 0.03125-0.007813 0.066406-0.011719 0.097656-0.015625 0.070312-0.011719 0.14453-0.023438 0.21875-0.035157 0.039062-0.007812 0.078125-0.011718 0.12109-0.019531 0.070312-0.011719 0.14062-0.023437 0.21094-0.035156 0.042969-0.007813 0.085938-0.015625 0.13281-0.019531 0.070312-0.011719 0.14453-0.023438 0.22266-0.035156 0.042969-0.007813 0.089844-0.015626 0.13281-0.019532 0.082032-0.011718 0.16797-0.023437 0.25391-0.035156 0.039062-0.007812 0.078125-0.011719 0.11719-0.015625 0.125-0.019531 0.25391-0.035156 0.38672-0.050781 3.5156-0.46094 8.0781-0.71875 12.844-0.71875s9.3281 0.25391 12.844 0.71875c0.13281 0.015625 0.26172 0.035156 0.38672 0.050781 0.039062 0.007813 0.078125 0.011719 0.11719 0.015625 0.085938 0.011719 0.16797 0.023438 0.25391 0.035156 0.046874 0.007813 0.089843 0.015625 0.13281 0.019532 0.074219 0.011718 0.14844 0.019531 0.22266 0.035156 0.046875 0.007812 0.089844 0.011718 0.13281 0.019531 0.070312 0.011719 0.14062 0.023437 0.21094 0.035156 0.039063 0.007813 0.082032 0.011719 0.12109 0.019531 0.070312 0.011719 0.14453 0.023438 0.21484 0.035157 0.03125 0.003906 0.066406 0.011719 0.097656 0.015625 0.10156 0.015625 0.19531 0.035156 0.28906 0.050781h0.003907c0.097656 0.019531 0.19141 0.035156 0.28125 0.054687 0.027343 0.003907 0.054687 0.011719 0.078125 0.015626 0.0625 0.011718 0.125 0.023437 0.1875 0.035156 0.03125 0.007812 0.0625 0.011718 0.09375 0.019531 0.054687 0.011719 0.10547 0.023437 0.15625 0.035156 0.03125 0.007813 0.0625 0.011719 0.09375 0.019531 0.050781 0.011719 0.10156 0.023438 0.14844 0.035157 0.027344 0.007812 0.058594 0.015625 0.085938 0.019531 0.050781 0.011719 0.10156 0.023438 0.14844 0.035156 0.019532 0.003906 0.046875 0.011719 0.066406 0.015625 0.0625 0.015625 0.12891 0.03125 0.1875 0.046875 0.003907 0.003906 0.011719 0.003906 0.015626 0.003906 0.066406 0.015626 0.12891 0.035157 0.19141 0.050782 0.019531 0.003906 0.035156 0.011718 0.054687 0.015625 0.039063 0.011719 0.085938 0.023437 0.125 0.035156 0.019531 0.007813 0.039063 0.011719 0.0625 0.019531 0.035157 0.011719 0.070313 0.019532 0.10547 0.03125 0.019531 0.007813 0.039062 0.011719 0.0625 0.019532 0.03125 0.011718 0.0625 0.019531 0.097656 0.03125 0.019532 0.007812 0.035156 0.011718 0.058594 0.019531 0.03125 0.011719 0.0625 0.019531 0.09375 0.03125 0.015625 0.003906 0.027344 0.011719 0.046875 0.015625 0.039063 0.015625 0.074219 0.027344 0.10938 0.039062 0.007812 0.003906 0.011719 0.003906 0.019531 0.007813 0.039063 0.015625 0.078125 0.027343 0.11719 0.042969 0.011719 0.003906 0.023437 0.007812 0.035156 0.015624 0.023437 0.011719 0.050781 0.019532 0.070313 0.027344 0.015624 0.007813 0.027343 0.011719 0.039062 0.015625 0.019531 0.007813 0.039062 0.015625 0.058594 0.023438 0.015625 0.003906 0.027344 0.011719 0.039062 0.015625 0.019532 0.007812 0.035156 0.015625 0.054688 0.023437 0.011718 0.007813 0.023437 0.011719 0.03125 0.015625 0.019531 0.007813 0.03125 0.015625 0.050781 0.023438 0.011719 0.003906 0.019531 0.007812 0.027344 0.015625 0.019531 0.007812 0.035156 0.019531 0.054687 0.027343 0.007813 0.003907 0.011719 0.003907 0.019532 0.007813 0.019531 0.011719 0.039062 0.019531 0.0625 0.03125 0.007812 0.003906 0.015624 0.007813 0.019531 0.011719 0.011719 0.007812 0.023437 0.011718 0.03125 0.019531 0.007812 0.003906 0.015625 0.007813 0.019531 0.011719 0.011719 0.003906 0.019531 0.011718 0.023438 0.015625 0.007812 0.003906 0.015624 0.007812 0.019531 0.011719 0.003906 0.003906 0.007812 0.003906 0.011719 0.007812-0.39453 0.25391-1.6758 0.83594-5.5391 1.3438-3.5156 0.46484-8.0781 0.71875-12.844 0.71875s-9.3281-0.25391-12.844-0.71875c-3.8828-0.50391-5.1602-1.0898-5.5547-1.3398zm37.762-1.0586c-0.40625-0.32422-0.95703-0.54687-1.4258-0.70703-1.0117-0.34766-2.4414-0.65234-4.2539-0.91406-3.6641-0.53125-8.5312-0.82031-13.703-0.82031s-10.035 0.29297-13.703 0.82031c-1.8125 0.26172-3.2422 0.57031-4.2539 0.91406-0.46875 0.16016-1.0195 0.38281-1.4258 0.70703-5.9883-8.2734-5.2148-24.117-5.125-25.652h49.008c0.097656 1.5391 0.86719 17.383-5.1172 25.652zm-45.832-27.094l1.457-2.8945h49.988l1.457 2.8945z"/>
  <path d="m30.215 13.473c-1.7188 0-3.1172 1.3477-3.1172 3.0039s1.3984 3.0039 3.1172 3.0039 3.1172-1.3477 3.1172-3.0039c-0.003906-1.6562-1.3984-3.0039-3.1172-3.0039zm0 4.9492c-1.1367 0-2.0586-0.87109-2.0586-1.9453 0-1.0742 0.92188-1.9453 2.0586-1.9453 1.1367 0 2.0586 0.875 2.0586 1.9453 0 1.0742-0.92578 1.9453-2.0586 1.9453z"/>
 </g>
</svg>
