<?xml version="1.0" encoding="UTF-8"?>
<svg fill="#FFFFFF" width="100pt" height="100pt" version="1.1" viewBox="0 0 100 100" xmlns="http://www.w3.org/2000/svg">
 <g fill="none" stroke="#FFFFFF" stroke-miterlimit="10">
  <path transform="translate(247 -370.9)" d="m-175.5 401.3c0-2.1016-0.30078-4.1992-0.89844-6.3008-2.1016-7.5-7.8984-13.602-15.301-16-2.3984-0.80078-4.8984-1.1992-7.3984-1.1992-17 0-27.199 17.398-22.5 33 1.3008 4.1992 4.3984 7.8008 6.8984 11.398 1.1016 1.6016 2.1992 3.1016 3.3984 4.6992 0.19922 0.30078 1.3984 1.3984 1.3984 1.8984v7.8984h21.699v-7.1992l6.1992-9.1016c4.0039-5.9922 6.6055-12.391 6.5039-19.094z"/>
  <path transform="translate(247 -370.9)" d="m-208.5 411.4l5.5 25.102"/>
  <path transform="translate(247 -370.9)" d="m-195.9 436.5l5.5-25.102"/>
  <path transform="translate(247 -370.9)" d="m-207.2 417.3l3.0977-5.8984 3.6016 6.6016 2.1992-3.3008 2.4023 1.3984 5.1992-3.0977"/>
  <path transform="translate(247 -370.9)" d="m-190 446.4h-18.301c-1.6992 0-3.1992-1.3984-3.1992-3.1992 0-1.6992 1.3984-3.1992 3.1992-3.1992h18.398c1.6992 0 3.1992 1.3984 3.1992 3.1992-0.097656 1.6992-1.4961 3.1992-3.2969 3.1992z"/>
  <path transform="translate(247 -370.9)" d="m-210 448.6c0 3.5 2.6992 6.3984 5.8984 6.3984h11.699c2.3008 0 4.1016-3.1992 4.1016-6.3984z"/>
  <path transform="translate(247 -370.9)" d="m-194.4 455.4c0 1.8008-2.1016 3.3008-4.6992 3.3008-2.6016 0-4.6992-1.5-4.6992-3.3008-0.10156-0.60156 9.3984-0.69922 9.3984 0z"/>
 </g>
</svg>
