<?xml version="1.0" encoding="UTF-8"?>
<svg fill="#FFFFFF" width="100pt" height="100pt" version="1.1" viewBox="0 0 100 100" xmlns="http://www.w3.org/2000/svg">
 <path d="m77 59.5h-0.89844c-0.69922-2.3008-2.6016-4-5-4.5v-11.801c0-11.602-9.3984-21.102-21.102-21.102-11.699 0-21.102 9.3984-21.102 21.102v11.801c-2.3984 0.5-4.1992 2.1992-5 4.5h-0.89844c-1.6992 0-3 1.3008-3 3v7.6992c0 1.6992 1.3008 3 3 3h0.89844c0.89844 2.6992 3.3984 4.6016 6.3984 4.6016h6.5c0.60156 0 1-0.39844 1-1v-21c0-0.60156-0.39844-1-1-1l0.003906-11.602c0-7.3008 5.8984-13.199 13.199-13.199s13.199 5.8984 13.199 13.199v11.602c-0.60156 0-1 0.39844-1 1v21c0 0.60156 0.39844 1 1 1h6.5c3 0 5.5-2 6.3984-4.6016h0.90234c1.6992 0 3-1.3008 3-3v-7.6992c0-1.6992-1.3008-3-3-3zm-53.398 11.699h-0.60156c-0.60156 0-1-0.39844-1-1v-7.6992c0-0.60156 0.39844-1 1-1h0.60156v0.10156 9.5 0.097657zm12.199 4.6992h-5.5c-2.6016 0-4.8008-2.1016-4.8008-4.8008v-9.5c0-2.6016 2.1016-4.8008 4.8008-4.8008h5.5zm14.199-47.898c-8.3984 0-15.199 6.8008-15.199 15.199v11.602h-3.8984l-0.003906-11.602c0-10.5 8.6016-19.102 19.102-19.102s19.102 8.6016 19.102 19.102v11.602h-3.8984l-0.003906-11.602c0-8.3984-6.8008-15.199-15.199-15.199zm24.398 43.102c0 2.6016-2.1016 4.8008-4.8008 4.8008h-5.5v-19h5.5c2.6016 0 4.8008 2.1016 4.8008 4.8008zm3.6016-0.90234c0 0.60156-0.39844 1-1 1h-0.60156v-0.10156-9.5-0.10156l0.60156 0.003906c0.60156 0 1 0.39844 1 1z"/>
</svg>
