<?xml version="1.0" encoding="UTF-8"?>
<svg fill="#FFFFFF" width="100pt" height="100pt" version="1.1" viewBox="0 0 100 100" xmlns="http://www.w3.org/2000/svg">
 <path d="m76.879 27.992c0.78125-1.1836 1.1992-2.5664 1.1992-4.0078 0-3.8164-2.9375-6.957-6.6758-7.2773-1.3477-3.2695-4.5234-5.4219-8.1133-5.4219-0.57812 0-1.1523 0.058594-1.7148 0.16797-1.4844-2.9336-4.5391-4.8477-7.8594-4.8477-4.8555 0-8.8086 3.9492-8.8086 8.8086v0.058594c-2.1953-0.50781-4.5586-0.10938-6.4609 1.1016-1.4219-1.0547-3.1367-1.625-4.9141-1.625-4.5625 0-8.2734 3.7109-8.2734 8.2734 0 0.47656 0.039063 0.94922 0.12109 1.418-3.2773 1.125-5.5664 4.2891-5.5664 7.8906 0 3.625 2.3555 6.6719 4.918 7.9375l6.9297 46.906c0.058594 0.40234 0.35547 0.73047 0.75391 0.82422l21.23 5.1641c0.050781 0.011719 0.10156 0.015625 0.14844 0.019531 0.015625 0.003907 0.023437 0.007813 0.035156 0.011719h0.050781 0.003906c0.11328 0 0.22266-0.027343 0.32813-0.0625 0.027343-0.011719 0.054687-0.019531 0.082031-0.03125 0.023437-0.011719 0.054687-0.019531 0.078125-0.03125l11.25-6.375c0.25-0.14062 0.42578-0.38281 0.48438-0.66406l9.6484-45.68c2.6445-1.2227 4.4453-3.6289 4.4141-6.0352-0.007813-1.793-1.0117-5.1055-3.2891-6.5234zm-43.332 58.426l-6.6992-45.348 7.1133 1.1992 4.2266 45.273zm6.6953 1.6289l-4.2383-45.43 8.0156 1.3516 1.6914 45.406zm12.707 3.0898l-5.2188-1.2695-1.6992-45.559 9.1875 1.5508zm2.0312-0.50781l2.2461-44.836 4.3125-1.1953-4.8398 45.055zm3.8633-2.1914l4.7734-44.422 4.3125-1.1953-6.8906 44.375zm5.4102-3.0664l-1 0.56641 6.7891-43.703 3.5273-0.98047zm10.309-46.465l-12.152 3.3711c-0.003906 0.003906-0.007812 0.003906-0.011718 0.003906l-6.1836 1.7148-29.918-5.0508c-2.1602-0.67578-4.4766-3.3047-4.4766-6.418 0-3.0078 2.0859-5.6133 4.9609-6.1992 0.27344-0.054687 0.51562-0.22656 0.66016-0.46875 0.14453-0.24219 0.17969-0.53125 0.097656-0.80469-0.18359-0.59766-0.27344-1.2148-0.27344-1.8359 0-3.4609 2.8125-6.2734 6.2734-6.2734 1.5508 0 3.0391 0.57422 4.1992 1.6211 0.35938 0.32422 0.89844 0.34375 1.2812 0.050782 1.8828-1.457 4.4492-1.7695 6.6328-0.80078 0.33984 0.14844 0.73828 0.10156 1.0273-0.13281 0.29297-0.23047 0.42969-0.60547 0.35937-0.97266-0.085937-0.4375-0.12891-0.87891-0.12891-1.3008 0-3.7539 3.0547-6.8086 6.8086-6.8086 2.7969 0 5.3516 1.7617 6.3516 4.3789 0.1875 0.48828 0.71875 0.75391 1.2266 0.59766 0.64844-0.19922 1.3203-0.30078 1.9961-0.30078 2.957 0 5.5508 1.8906 6.4531 4.7031 0.13672 0.42969 0.57812 0.73047 1.0234 0.6875 2.9258 0 5.3086 2.3828 5.3086 5.3086 0 1.3945-0.53906 2.7109-1.5234 3.7148-0.25391 0.26172-0.34766 0.63672-0.24219 0.98438 0.10547 0.34766 0.39062 0.61328 0.74219 0.69141 2.0156 0.44141 3.1055 3.5977 3.125 5.1641 0.019531 1.7148-1.5 3.5469-3.6172 4.375zm-33.961-12.805c-0.71484 0.29297-1.3516 0.73047-1.8789 1.2812-1.543-0.80859-3.3477-0.90234-4.9844-0.22656-3.0234 1.25-4.4688 4.7266-3.2188 7.7539 0.16016 0.38672 0.53125 0.61719 0.92578 0.61719 0.12891 0 0.25781-0.023438 0.38281-0.074219 0.51172-0.21094 0.75391-0.79688 0.54297-1.3047-0.82812-2.0039 0.12891-4.3125 2.1367-5.1406 1.2812-0.52734 2.7188-0.34375 3.8477 0.49609 0.21875 0.16406 0.5 0.23047 0.76953 0.18359s0.51172-0.20312 0.66016-0.43359c0.39062-0.58594 0.9375-1.0352 1.5859-1.3047 1.7852-0.73438 3.8359 0.11719 4.5742 1.9023 0.21094 0.51172 0.79688 0.75391 1.3047 0.54297 0.51172-0.21094 0.75391-0.79688 0.54297-1.3047-1.1641-2.8086-4.3867-4.1445-7.1914-2.9883zm15.781-4.7773c-0.53516 0.55859-0.94141 1.2148-1.1992 1.9297-1.7305-0.125-3.4258 0.52344-4.6484 1.8047-0.38281 0.39844-0.36719 1.0312 0.03125 1.4141 0.39844 0.38281 1.0312 0.36719 1.4141-0.03125 0.95703-1 2.3438-1.4102 3.7188-1.0977 0.26953 0.058594 0.55078 0.011719 0.77734-0.14453 0.23047-0.15234 0.38672-0.39062 0.43359-0.66016 0.11719-0.69141 0.4375-1.3281 0.92578-1.832 1.3359-1.3945 3.5586-1.4414 4.9531-0.10938 0.67578 0.64453 1.0625 1.5195 1.082 2.4531 0.019531 0.93359-0.32422 1.8203-0.97266 2.5-0.17188 0.18359-0.38281 0.34766-0.66016 0.52734-0.22656 0.14453-0.38281 0.37109-0.4375 0.63281-0.054687 0.26172-0.007812 0.53125 0.14062 0.75391 0.49609 0.76953 0.40234 1.7656-0.22656 2.4258-0.38281 0.39844-0.36719 1.0312 0.03125 1.4141 0.19531 0.1875 0.44141 0.27734 0.69141 0.27734 0.26562 0 0.52734-0.10547 0.72266-0.30859 1.0508-1.1016 1.3633-2.6602 0.87891-4.0469 0.10938-0.097656 0.21094-0.19141 0.30859-0.29297 1.0156-1.0625 1.5586-2.457 1.5234-3.9258-0.03125-1.4688-0.63672-2.8398-1.6953-3.8555-2.207-2.0977-5.6992-2.0195-7.793 0.17188z"/>
</svg>
