<?xml version="1.0" encoding="UTF-8"?>
<svg fill="#FFFFFF" width="100pt" height="100pt" version="1.1" viewBox="0 0 100 100" xmlns="http://www.w3.org/2000/svg">
 <path d="m78.086 7c0.55078 0 1 0.44531 1 1v11.328c0 0.55469-0.44922 1-1 1h-2.1797v5.3086h2.1797v0.003906c0.55078 0 1 0.44531 1 1v65.363-0.003906c0 0.55078-0.44922 1-1 1h-56.172c-0.55078 0-1-0.44922-1-1v-7.6719c0-4.0156 1.9727-6.8047 4.9375-8.3398 2.9648-1.5352 6.832-1.9961 11.02-2.0117 7.8789-0.023437 16.988 1.6055 22.801 1.8242-0.16406-2.293-0.77344-6.0977-1.4297-10.5-0.76563-5.1406-1.5781-11.164-1.7539-16.945-0.17578-5.7773 0.26562-11.316 2.1445-15.559 1.8828-4.2422 5.4297-7.1602 10.84-7.1602h4.4297v-5.3086h-9.4414 0.003906c-0.55078 0-1-0.44531-1-1v-5.6719c0-3.6562 2.9961-6.6602 6.6602-6.6602h7.9609zm-1 2h-6.9609c-2.5742 0-4.6602 2.0938-4.6602 4.6602v4.6719h11.621zm0 18.641h-7.6094c-4.7305 0-7.3477 2.2227-9.0117 5.9688-1.6602 3.75-2.1445 9.0547-1.9766 14.688 0.17188 5.6328 0.96875 11.59 1.7305 16.711 0.76172 5.1211 1.4922 9.3398 1.4922 11.82h0.003906c0 0.26562-0.10547 0.52344-0.29297 0.71094-0.19141 0.1875-0.44531 0.29297-0.71094 0.28906-6.1211-0.035156-15.762-1.875-23.832-1.8477-4.0352 0.011719-7.6445 0.51172-10.105 1.7852-2.4609 1.2734-3.8594 3.1484-3.8594 6.5625v6.6719h54.168v-63.363z" fill-rule="evenodd"/>
</svg>
