<?xml version="1.0" encoding="UTF-8"?>
<svg fill="#FFFFFF" width="100pt" height="100pt" version="1.1" viewBox="0 0 100 100" xmlns="http://www.w3.org/2000/svg">
 <g>
  <path d="m69.34 75.562l1.3281 2.7344c0.066406 0.13672 0.18359 0.24219 0.32812 0.29297 0.0625 0.019531 0.125 0.03125 0.1875 0.03125 0.085937 0 0.17188-0.019532 0.25391-0.058594l1.4688-0.71484c0.054688 0.011719 0.10547 0.019532 0.16406 0.019532h11.176c1.4883 0 2.8438-0.75781 3.625-2.0195 0.39844-0.64453 0.60547-1.3633 0.63281-2.0938l0.46875-0.59766c0.17578-0.22266 0.16406-0.53516-0.023437-0.74219l-0.78125-0.86328 3.9062-3.1406c0.21484-0.17578 0.27734-0.47656 0.14844-0.72266l-1.4492-2.7266c-0.082032-0.15234-0.22656-0.26172-0.39453-0.29688-0.16797-0.035156-0.34375 0.007813-0.48047 0.11719l-1.0234 0.82422c-0.12891-0.058594-0.27344-0.074219-0.40625-0.039063-0.10547 0.023438-0.78516 0.16797-1.8086 0.37891l1.8867-2.7383c0.082031-0.12109 0.11328-0.26953 0.085937-0.41016-0.027343-0.14453-0.10937-0.26953-0.23047-0.35156l-2.4453-1.6758c-0.24219-0.16797-0.57812-0.10938-0.75 0.12891l-1.6836 2.3281c-0.17188-0.042968-0.35547-0.027343-0.52734 0.054688-0.37891 0.19141-0.53516 0.65234-0.34375 1.0312l0.035156 0.070312-0.44531 0.62109-3.4414-3.7969c-0.12891-0.14062-0.31641-0.21094-0.50391-0.18359-0.1875 0.023437-0.35156 0.14062-0.4375 0.3125l-1.7148 3.3633c-0.085937 0.16406-0.085937 0.35938 0 0.52344 0.070313 0.14062 0.58203 0.69531 1.3555 1.4961l-7.332-0.3125c-0.16406-0.011719-0.3125 0.050781-0.42578 0.16016-0.11328 0.10938-0.17969 0.26172-0.17578 0.41797l0.015625 3.5352c0 0.19922 0.10547 0.38281 0.27344 0.48828 0.09375 0.058594 0.19922 0.085938 0.30469 0.085938 0.054688 0 0.10547-0.007812 0.15625-0.019531 0.21094-0.03125 1.0508-0.070313 2.2383-0.10938l-0.14453 1.1562c-0.023437 0.18359 0.042969 0.36719 0.17578 0.49219 0.10937 0.10156 0.25 0.15625 0.39453 0.15625 0.035156 0 0.070312-0.003906 0.10547-0.011719l1.1328-0.21094-4.6094 2.2383c-0.28906 0.14844-0.41016 0.49219-0.26953 0.77734zm19.895-8.7578l0.84375-0.67969 0.89844 1.6875-1.8984 1.5273c0.097656-1.2266 0.14453-2.0156 0.15625-2.5352zm-2.5742 7.4297c-1.0391-1.0234-2.2227-2.1914-3.3945-3.3555l2.3359-0.43359 2.1602 2.3828zm-2.5547-0.89844l-2.9727 2.3906-0.55859-1.9375 2.1953-1.7695c0.44922 0.44141 0.89844 0.88281 1.3359 1.3164zm-4.5547-0.20703c-0.17969 0.14453-0.25781 0.38672-0.19141 0.60938l0.17969 0.63281-1.2422 1.8047-2.2344-0.74609 2.6836-3.7148 3.3203-0.61328zm0.37891 2.5977l0.17578 0.60547h-0.58984zm4.3203 0.60547h-2.0273l2.7109-2.1797c0.46094 0.45312 0.90234 0.89062 1.3164 1.2969-0.51172 0.55859-1.2266 0.88281-2 0.88281zm3.1367-5.6367l-0.44922-0.49609 1.3906-0.25781zm-1.6094-8.7148l1.5547 1.0625-2.2188 3.2266c-0.86328 0.17969-1.8398 0.37891-2.8594 0.58984zm-8.4297 2.9102l1.1562-2.2695 3.043 3.3555-0.64453 0.89453-1.7188-0.074219c-0.85938-0.87109-1.5195-1.5547-1.8359-1.9062zm-4.5703 4.3125l-0.074219 0.60547c-0.94141 0.03125-1.5625 0.0625-1.9688 0.089844l-0.011719-2.3086 6.6016 0.28125c-1.6016 0.32812-3.0586 0.625-4.0898 0.83984-0.24219 0.046874-0.42188 0.24609-0.45703 0.49219zm0.875 2.2812l0.21875-1.7266c9.5039-1.9453 12.941-2.6562 14.203-2.9219-0.019531 0.50781-0.0625 1.2656-0.11719 2zm3.1055 1.1211l-2.0156 2.7891c-0.070313 0.097657-0.10547 0.21484-0.10156 0.33594l-3.1914 1.5469-0.82031-1.6953z"/>
  <path d="m44.898 56.492l7.8672 1.2305c0.015625 0.003906 0.027344 0.003906 0.039063 0.003906 0.0625 0 0.125-0.023437 0.17578-0.066406 0.058593-0.050781 0.09375-0.125 0.09375-0.20312v-1.6289c0-0.12109-0.082031-0.23047-0.20312-0.26172l-4.9062-1.2266c-0.066406-0.015625-0.13672-0.007813-0.19531 0.023437l-2.9609 1.6211c-0.10156 0.054687-0.15625 0.16797-0.13672 0.28125 0.023437 0.12109 0.11328 0.21094 0.22656 0.22656zm3.0391-1.5977l4.6055 1.1484v1.1016l-6.7773-1.0586z"/>
  <path d="m50.652 58.402c-0.25391 0.25781-0.67188 0.41016-1.1172 0.41406h-0.019531c-0.44922 0-0.85938-0.15234-1.1211-0.41406-0.80859-0.80859-2.0312-0.80859-2.8398 0-0.10547 0.10547-0.10547 0.27344 0 0.37891 0.10547 0.10547 0.27344 0.10547 0.37891 0 0.60156-0.60547 1.4805-0.60547 2.082 0 0.38281 0.38281 0.94531 0.57031 1.5117 0.57031s1.1289-0.19141 1.5117-0.57031c0.10547-0.10547 0.10547-0.27344 0-0.37891-0.10937-0.10547-0.27734-0.10547-0.38672 0z"/>
  <path d="m42.594 55.859c-0.55078 0.55078-1.7109 0.55078-2.2617 0-0.80859-0.80859-2.0312-0.80859-2.8398 0-0.10547 0.10547-0.10547 0.27344 0 0.37891 0.10547 0.10547 0.27344 0.10547 0.37891 0 0.60156-0.60156 1.4805-0.60156 2.082 0 0.38281 0.38281 0.94531 0.57031 1.5117 0.57031s1.1289-0.19141 1.5117-0.57031c0.10547-0.10547 0.10547-0.27344 0-0.37891-0.10937-0.10547-0.28125-0.10547-0.38281 0z"/>
  <path d="m54.215 56.883c0.60547-0.60547 1.4805-0.60547 2.082 0 0.36328 0.36328 0.91016 0.57031 1.5039 0.57031h0.023438c0.59375-0.007813 1.1367-0.21484 1.4922-0.57422 0.10547-0.10547 0.10547-0.27344 0-0.37891-0.10547-0.10547-0.27344-0.10547-0.37891 0-0.25391 0.25781-0.67578 0.41016-1.1172 0.41406-0.45703 0.003907-0.875-0.14844-1.1406-0.41406-0.8125-0.80859-2.0312-0.80859-2.8438 0-0.10547 0.10547-0.10547 0.27344 0 0.38281 0.10547 0.10547 0.27344 0.10547 0.37891 0z"/>
  <path d="m96.949 74.402l-13.469-31.027c-0.94141-2.1641-2.9531-3.6367-5.2578-3.9141 0.17578-0.71094 0.47266-1.3008 0.76562-1.875 0.38672-0.76172 0.78516-1.5508 0.82812-2.5234 0.03125-0.72656 0.019532-2.6484 0.011719-4.5078-0.003906-0.875-0.007813-1.7266-0.007813-2.4102 0-1.9727-3.0664-5.0859-5.8945-7.5352 0.92188-0.55078 1.4883-1.3047 1.4883-2.1523v-4.0781c0-1.7305-2.3516-3.0859-5.3516-3.0859-3.0039 0-5.3516 1.3555-5.3516 3.0859v4.0781c0 0.84375 0.5625 1.6016 1.4844 2.1523-2.8242 2.4492-5.8906 5.5625-5.8906 7.5352 0 0.67969-0.003907 1.5312-0.007813 2.4102-0.011719 1.8594-0.019531 3.7812 0.011719 4.5078 0.039062 0.97266 0.4375 1.7617 0.82422 2.5234 0.28516 0.5625 0.57031 1.1328 0.75 1.8203h-8.3867c-0.375-1.8594-1.2344-3.2695-2.5273-4.043-1.0547-0.62891-2.0547-0.82812-3.1445-0.62109-0.73438 0.13672-1.4336 0.44531-2.1094 0.74219-0.53516 0.23438-1.125 0.49609-1.7812 0.6875 0.22266-0.94141 0.80078-1.7031 1.7188-2.2695 0.3125-0.19141 0.41016-0.60547 0.21875-0.91406-0.14453-0.23438-0.42188-0.35547-0.69141-0.30859-0.078126 0.015624-0.15625 0.046874-0.22656 0.089843-1.5273 0.9375-2.1328 2.1797-2.3516 3.2305-0.64453-0.82812-1.3828-1.4492-2.2031-1.8516-1.5664-0.76563-3.3203-0.66016-4.5117-0.4375-1.0078 0.1875-1.7109 0.47656-1.7891 0.50781-0.30859 0.12891-0.47656 0.46875-0.38672 0.79297 0.019531 0.066406 0.44141 1.5898 1.5 3.0156-0.054688 0.054687-0.10156 0.10547-0.14844 0.16016-0.31641 0.36328-0.55859 0.77344-0.73828 1.2188h-3.2422l0.32422-0.71094c0.10938-0.24219 0.058594-0.52734-0.13281-0.71484-0.19141-0.1875-0.48047-0.23047-0.71875-0.11328-0.46094 0.22266-4.5312 2.2344-5.7773 3.7656-0.21875 0.26953-0.17969 0.66797 0.089844 0.89063 0.26953 0.22266 0.66797 0.17969 0.89062-0.089844 0.62109-0.76172 2.3359-1.8125 3.7383-2.5859l-7.2188 15.801c-0.019532 0.042968-0.03125 0.085937-0.042969 0.13281-0.027344 0.12109-2.6172 12.305-3.418 14.273-0.36328 0.89062-0.85547 1.4805-1.4258 1.6992-0.36328 0.14062-0.75391 0.12109-1.125-0.058594-0.3125-0.14844-0.69141-0.015624-0.84375 0.30078-0.14844 0.3125-0.015625 0.69141 0.29688 0.84375 0.37891 0.17969 0.78125 0.27344 1.1797 0.27344 0.32031 0 0.64062-0.058593 0.94531-0.17578 0.62891-0.24219 1.5117-0.85938 2.1406-2.4023 0.82031-2.0156 3.2383-13.328 3.4688-14.422l6.9141-15.168h3.5977c-0.054688 0.75 0.023437 1.5625 0.25391 2.4414 0.71094 2.7383 1.9219 5.1562 3.3086 6.8555-4.0039 0.95312-6.9062 2.5508-6.9453 4.7266-0.16016 0.82031-0.24609 1.6562-0.24609 2.4922 0 4.8438 2.7344 9.3281 7.3359 12.062 0 0.19531-0.003906 0.33984-0.007813 0.47266-0.003906 0.16797-0.007812 0.32031-0.007812 0.53906 0 1.5586 1.0352 2.9023 2.9141 3.7969 1.6992 0.80859 4.0039 1.2305 6.6602 1.2305 5.8945 0 9.5586-1.875 9.5586-4.8906v-0.69922-0.44922c3.5312-2.1016 5.957-5.2305 6.8984-8.7656h13.996c1.4766 0 2.8242-0.74609 3.6055-1.9922 0.78516-1.2461 0.87109-2.7852 0.23438-4.1133l-0.89063-1.8516c0.003907-0.011719 0.007813-0.019531 0.011719-0.03125 0.085938-0.21484 0.12891-0.44141 0.12891-0.6875 0-2.3555-0.63281-3.9922-1.3008-5.7266-0.46875-1.2148-0.94922-2.4688-1.2695-4.1016-0.09375-0.46484-0.13672-0.88281-0.14844-1.2695 1.7539 0.22266 3.2852 1.3477 4.0039 3l13.469 31.027c0.67969 1.5703 0.52734 3.3594-0.41016 4.7891-0.9375 1.4297-2.5195 2.2852-4.2305 2.2852h-81.785c-1.7109 0-3.2891-0.85547-4.2305-2.2852-0.9375-1.4297-1.0898-3.2188-0.41016-4.7891l3.3984-7.832 3.3359 9.5273c-0.066406-0.12109-0.12109-0.24609-0.15625-0.37891h-2.2188c-0.42578 0-0.76953 0.34375-0.76953 0.76953 0 0.42578 0.34375 0.76953 0.76953 0.76953h2.7812l0.65625 1.8789c0.082032 0.23828 0.30078 0.40234 0.55469 0.42188h0.042969c0.23828 0 0.45312-0.13281 0.5625-0.34375l0.99219-1.957h4.8711c1.9102 0 3.5977-1.2852 4.1055-3.125l8.1328-29.379c0.11328-0.41016-0.12891-0.83594-0.53516-0.94531-0.41016-0.11328-0.83594 0.125-0.94531 0.53516l-8.1328 29.379c-0.32422 1.1758-1.4023 1.9961-2.6211 1.9961h-4.0898l1.0508-2.0742c0.15625-0.3125 0.035156-0.69141-0.27734-0.85156-0.30859-0.15625-0.69141-0.035156-0.84766 0.27734l-1.9492 3.8398c-0.0625 0.015625-0.12891 0.027344-0.19531 0.035157-0.046874 0.003906-0.09375 0.003906-0.13672 0.007812l-7.7891-22.23 1.4492-0.98438c0.19141-0.13281 0.28906-0.35156 0.27344-0.56641l3.5234 11.535c0.082031 0.26953 0.33594 0.44531 0.60547 0.44531 0.0625 0 0.125-0.007813 0.18359-0.027344 0.33594-0.10156 0.51953-0.45312 0.42187-0.78906l-4.4766-14.645 20.32-17.902-1.7422 6.3906c-0.09375 0.33594 0.10547 0.68359 0.44141 0.77734 0.33984 0.09375 0.68359-0.10547 0.77344-0.44141l2.2969-8.4219c0.074218-0.26953-0.039063-0.55469-0.27344-0.70312s-0.54297-0.12109-0.75 0.0625l-22.203 19.559c-0.1875 0.16406-0.26172 0.42188-0.1875 0.66016l0.98828 3.2305c-0.007812-0.015625-0.015624-0.027344-0.023437-0.042969-0.19531-0.28906-0.58984-0.36328-0.87891-0.16797l-1.8555 1.2578c-0.23828 0.16016-0.33594 0.46094-0.24219 0.73047l3.4141 9.7539-4.0625 9.3555c-0.88672 2.0508-0.6875 4.3867 0.53906 6.25 1.1133 1.6953 2.9219 2.7695 4.9219 2.9492 0.36719 2.875 2.8242 5.1094 5.7969 5.1094h71.395c2.9766 0 5.4336-2.2344 5.7969-5.1094 1.9961-0.17969 3.8086-1.2539 4.9219-2.9492 1.2227-1.8633 1.4219-4.1992 0.53125-6.2461zm-26.891-61.922c2.4531 0 4.1602 1 4.1602 1.8945 0 0.89844-1.7109 1.8945-4.1602 1.8945-2.4531 0-4.1602-1-4.1602-1.8945-0.003907-0.89453 1.707-1.8945 4.1602-1.8945zm-4.1641 5.9766v-0.011719-0.003906-2.1055c0.97266 0.69141 2.4648 1.125 4.1602 1.125 1.6992 0 3.1875-0.43359 4.1602-1.125v2.0742h-0.003906c0 0.015625 0.003906 0.027344 0.003906 0.042969 0 0.50391-0.54297 1.043-1.4531 1.4141-0.17578 0-0.35156 0.058593-0.49609 0.17187-0.625 0.1875-1.375 0.30859-2.2109 0.30859-0.83984 0-1.5859-0.11719-2.2109-0.30859-0.14453-0.11328-0.31641-0.17187-0.49609-0.17187-0.91016-0.36719-1.4531-0.90234-1.4531-1.4102zm1.957 2.8203c0.66797 0.17188 1.4141 0.26562 2.2031 0.26562 0.78906 0 1.5352-0.097657 2.2031-0.26562 3.3086 2.793 5.0117 4.7891 5.6523 5.9688-1.7305-1.0586-4.8047-1.6016-7.8594-1.6016-3.0547 0-6.1328 0.54688-7.8594 1.6016 0.64844-1.1797 2.3516-3.1758 5.6602-5.9688zm9.8906 7.9727c0 0.60547-2.6133 2.0234-7.6875 2.0234-5.0703 0-7.6875-1.418-7.6875-2.0234s2.6133-2.0234 7.6875-2.0234c5.0742 0.003907 7.6875 1.4219 7.6875 2.0234zm-15.695 11.695c-0.011719 0.39844-0.054687 0.83203-0.14844 1.3164-0.32031 1.6328-0.80469 2.8867-1.2695 4.1016-0.55469 1.4414-1.0781 2.8203-1.2422 4.5977-1.2031-0.42969-2.5898-0.78516-4.082-1.0625v-4.7305c0-0.42578-0.34375-0.76953-0.76953-0.76953-0.42578 0-0.76953 0.34375-0.76953 0.76953v4.4805c-0.63281-0.089844-1.2773-0.16797-1.9297-0.23047 0.75-1.375 1.3047-3.125 1.5977-4.7695 0.23828-1.332 0.31641-2.5742 0.25-3.7031zm-26.852-5.6992c0.25-0.074219 0.5625-0.15234 0.92188-0.22266 1-0.1875 2.4531-0.28516 3.6875 0.32031 1.6367 0.80078 2.5508 2.6797 2.9062 3.5781-0.25 0.074219-0.5625 0.15625-0.92188 0.22266-1 0.1875-2.4531 0.28516-3.6875-0.32031-1.6328-0.79688-2.5508-2.6758-2.9062-3.5781zm0.31641 7.8008c-0.44531-1.7188-0.26172-3.0586 0.54688-3.9844 0.011718-0.011719 0.019531-0.023438 0.03125-0.035156 0.44141 0.41406 0.92188 0.75 1.4297 0.99609 1.5664 0.76562 3.3203 0.66016 4.5156 0.4375 1.0039-0.1875 1.7109-0.47656 1.7891-0.50781 0.30859-0.12891 0.47656-0.46875 0.38672-0.79297-0.007813-0.035156-0.058594-0.20703-0.15234-0.46875 0.007812-0.085937-0.003906-0.17188-0.027344-0.25391-0.042969-0.13281-0.13281-0.45312-0.17969-0.875 0.93359-0.21875 1.7383-0.57422 2.3984-0.86328 0.66016-0.29297 1.2305-0.54297 1.8086-0.65234 0.76953-0.14453 1.457-0.003906 2.2266 0.45703 2.1641 1.293 2.3711 4.9336 1.8398 7.9102-0.375 2.1055-1.0508 3.8008-1.7539 4.8828-1.0391-0.066406-2.0859-0.10156-3.125-0.10156-2.8203 0-5.6992 0.25-8.2539 0.73438-1.5039-1.6328-2.8242-4.3516-3.4805-6.8828zm0.61719 8.9453c2.957-0.95313 6.9023-1.4805 11.105-1.4805s8.1484 0.52344 11.105 1.4805c2.6445 0.85547 4.2266 1.9805 4.2266 3.0195 0 0.54688-0.4375 1.1133-1.2344 1.6562-1.7891-1.6445-7.6523-3.4336-13.766-3.4961-3.5195-0.039063-11.727 0.21875-14.789 3.2305-0.57031-0.46094-0.87891-0.9375-0.87891-1.3945 0.003906-1.0312 1.582-2.1602 4.2305-3.0156zm4.2227 5.6992c-0.078124-0.035156-0.17187-0.03125-0.24609 0.011719l-1.6523 0.94531c-0.82422-0.17969-1.6016-0.38672-2.3203-0.61719-1.207-0.39062-2.1875-0.83594-2.9023-1.3047 2.1133-1.9727 7.3672-3.0898 14.34-3.0156 5.8867 0.0625 11.496 1.7109 13.297 3.2539-0.66797 0.38281-1.5156 0.74219-2.5156 1.0664-2.957 0.95312-6.9023 1.4766-11.105 1.4766-1.0859 0-2.1523-0.035156-3.1875-0.10547zm2.1367 1.582c-1.1328-0.11328-2.2188-0.26953-3.2422-0.46484l1.0039-0.57422zm13.324 9.3008c-0.20703 0.11719-0.33594 0.33594-0.33594 0.57422v0.82422 0.69922c0 2.1367-3.3125 3.5703-8.2422 3.5703-4.8594 0-8.2578-1.5234-8.2578-3.707 0-0.20703 0.003907-0.35547 0.003907-0.51562 0.003906-0.21094 0.007812-0.44922 0.007812-0.875 0-0.23828-0.12891-0.45703-0.33594-0.57422-4.3828-2.4766-7-6.6328-7-11.109 0-0.09375 0.003906-0.1875 0.007812-0.27734 2.5508 2.3789 9.2188 3.6406 15.57 3.6406 6.3555 0 13.02-1.2617 15.57-3.6406 0.003907 0.09375 0.007813 0.1875 0.007813 0.27734 0.003906 4.4805-2.6094 8.6367-6.9961 11.113zm24.332-13.254c0.40625 0.84766 0.35156 1.832-0.14844 2.6289s-1.3633 1.2734-2.3047 1.2734h-13.68c0.078125-0.57812 0.12109-1.168 0.12109-1.7617 0-0.35547-0.019531-0.71094-0.046874-1.0625 1.6836 0.52734 3.7227 0.83203 5.9727 0.83203 4.3633 0 7.9492-1.1367 9.6328-2.8516zm-1-4.2812c0.089844 0.11328 0.007813 0.9375 0.007813 1.0664 0 1.6719-3.7344 3.5352-9.0938 3.5352-2.4922 0-4.6211-0.40625-6.1992-1.0039-0.18359-1.1953-1.2539-2.2031-2.8867-3.0156 0.015625-0.48828 0.039063-1.1445 0.074219-1.1797 0.19922-1.2617 0.60547-2.3359 1.0625-3.5156 0.46875-1.2188 1-2.5977 1.3477-4.3672 0.55078-2.8125-0.26172-4.4102-0.91406-5.6953-0.35156-0.69141-0.63281-1.2422-0.65625-1.8672-0.023438-0.625-0.019531-2.3281-0.011719-3.9531 1.6484 1.1953 4.9297 1.8164 8.1836 1.8164s6.5352-0.61719 8.1836-1.8164c0.007812 1.625 0.015624 3.3281-0.011719 3.9531-0.023438 0.62891-0.30469 1.1758-0.65625 1.8672-0.65234 1.2852-1.4648 2.8867-0.91406 5.6953 0.34766 1.7695 0.87891 3.1484 1.3477 4.3672 0.52344 1.3672 0.98438 2.582 1.1367 4.1133zm6.5508 36.133h-71.391c-2.1133 0-3.8711-1.5312-4.2383-3.5391h79.867c-0.36328 2.0078-2.1211 3.5391-4.2383 3.5391z"/>
  <path d="m64.504 76.332h-36.344c-0.42578 0-0.76953 0.34375-0.76953 0.76953 0 0.42578 0.34375 0.76953 0.76953 0.76953h36.344c1.2578 0 2.4414-0.55078 3.2539-1.5117s1.1562-2.2227 0.94922-3.4609l-1.5273-9.0469c-0.070313-0.41797-0.46875-0.69922-0.88672-0.63281-0.41797 0.070312-0.69922 0.46875-0.63281 0.88672l1.5273 9.0469c0.13281 0.78906-0.085938 1.5977-0.60547 2.2109-0.51953 0.61719-1.2773 0.96875-2.0781 0.96875z"/>
  <path d="m11.566 67.953c-0.16797 0.4375-0.66797 1.957-0.10156 3.1484 0.26562 0.55469 0.73047 0.95313 1.3438 1.1562 0.25781 0.085938 0.51172 0.125 0.76172 0.125 1.2773 0 2.4102-1.0938 3.1172-3.0703 0.23828-0.67188 0.82031-2.8359 1.5547-5.5703 1.0859-4.043 2.8516-10.637 3.5078-12.047 0.47656 0.019532 0.92188-0.11328 1.332-0.38672 1.5898-1.0625 2.1758-4.0508 2.6016-6.2305 0.10547-0.53516 0.19531-0.99219 0.27734-1.2891 0.09375-0.33594-0.10156-0.68359-0.4375-0.77734-0.33594-0.09375-0.68359 0.10156-0.77734 0.4375-0.097656 0.34375-0.19141 0.82812-0.30078 1.3867-0.33984 1.7383-0.90625 4.6484-2.0625 5.4219-0.24219 0.16016-0.49219 0.21094-0.78516 0.14844-0.83203-0.16797-1.1836 0.90625-2.2773 4.6602-0.72656 2.4805-1.5625 5.5977-2.2969 8.3438-0.69922 2.6055-1.3008 4.8555-1.5234 5.4727-0.28125 0.78516-1.0664 2.5742-2.2969 2.1719-0.28906-0.09375-0.48047-0.25391-0.59375-0.49609-0.26172-0.55078-0.11719-1.4766 0.14062-2.1523 0.22656-0.58984 0.82031-1.8945 1.5781-3.543 4.0117-8.7617 5.9336-13.453 5.3164-14.789-0.12109-0.26172-0.33203-0.44141-0.59375-0.51562-0.17188-0.046875-0.26953-0.13281-0.34375-0.29688-0.24219-0.54688-0.28906-2.1914 2.1289-7.0273 0.15625-0.3125 0.027343-0.69141-0.28125-0.84766-0.3125-0.15625-0.69141-0.027344-0.84766 0.28125-2.0781 4.1562-2.7617 6.7305-2.1523 8.1016 0.19531 0.44141 0.52344 0.76172 0.96094 0.9375 0.17188 1.5938-3.668 9.9922-5.3359 13.633-0.76953 1.668-1.3711 2.9883-1.6133 3.6133z"/>
  <path d="m22.016 41.836c-0.33203-0.10547-0.6875 0.078124-0.79297 0.41016l-1.6016 5.0117c-0.10547 0.33203 0.078125 0.6875 0.41016 0.79297 0.0625 0.019531 0.12891 0.03125 0.19141 0.03125 0.26562 0 0.51562-0.17188 0.60156-0.4375l1.6016-5.0117c0.10547-0.33594-0.078125-0.69141-0.41016-0.79687z"/>
  <path d="m21.969 48.531c0.0625 0.019531 0.12109 0.027344 0.18359 0.027344 0.27344 0 0.52344-0.17578 0.60547-0.44922l1.4609-4.8711c0.10156-0.33594-0.089844-0.6875-0.42188-0.78516-0.33203-0.10156-0.6875 0.089844-0.78516 0.42188l-1.4609 4.875c-0.10547 0.32812 0.082031 0.67969 0.41797 0.78125z"/>
 </g>
</svg>
